<?xml version="1.0" encoding="UTF-8" standalone="no"?>
<!-- Created with Inkscape (http://www.inkscape.org/) -->

<svg
   xmlns:dc="http://purl.org/dc/elements/1.1/"
   xmlns:cc="http://creativecommons.org/ns#"
   xmlns:rdf="http://www.w3.org/1999/02/22-rdf-syntax-ns#"
   xmlns:svg="http://www.w3.org/2000/svg"
   xmlns="http://www.w3.org/2000/svg"
   xmlns:sodipodi="http://sodipodi.sourceforge.net/DTD/sodipodi-0.dtd"
   xmlns:inkscape="http://www.inkscape.org/namespaces/inkscape"
   width="32"
   height="32"
   viewBox="0 0 31.999999 31.999998"
   id="svg4702"
   version="1.1"
   inkscape:version="0.91 r13725"
   sodipodi:docname="pick_video.svg"
   inkscape:export-filename="T:\InkscapeFiles\new_icons\download_file.png"
   inkscape:export-xdpi="90"
   inkscape:export-ydpi="90">
  <defs
     id="defs4704" />
  <sodipodi:namedview
     id="base"
     pagecolor="#ffffff"
     bordercolor="#666666"
     borderopacity="1.0"
     inkscape:pageopacity="0.0"
     inkscape:pageshadow="2"
     inkscape:zoom="8.0000004"
     inkscape:cx="-5.320644"
     inkscape:cy="11.063468"
     inkscape:document-units="px"
     inkscape:current-layer="g7770"
     showgrid="false"
     units="px"
     inkscape:window-width="1366"
     inkscape:window-height="746"
     inkscape:window-x="-8"
     inkscape:window-y="-8"
     inkscape:window-maximized="1" />
  <metadata
     id="metadata4707">
    <rdf:RDF>
      <cc:Work
         rdf:about="">
        <dc:format>image/svg+xml</dc:format>
        <dc:type
           rdf:resource="http://purl.org/dc/dcmitype/StillImage" />
        <dc:title></dc:title>
      </cc:Work>
    </rdf:RDF>
  </metadata>
  <g
     inkscape:label="Layer 1"
     inkscape:groupmode="layer"
     id="layer1"
     transform="translate(0,-1020.3622)">
    <g
       id="g7770"
       transform="matrix(1.1666666,0,0,1.1666666,1.9999999,-177.39363)">
      <path
         inkscape:connector-curvature="0"
         id="rect5531"
         d="m 2.3426527,1036.1023 c 0,0 0.626448,0.6828 1.2005717,0.099 l 1.2612696,-1.2819 3.466271,3.523 c 0.255209,0.2594 0.651254,0.2754 0.8868975,0.036 l 0.9611685,-0.977 c 0.235655,-0.2395 0.219852,-0.6419 -0.03546,-0.9015 l -3.466201,-3.5229 1.247977,-1.2685 c 0.539962,-0.5888 -0.08448,-1.2337 -0.08448,-1.2337 l -6.0663813,-0.4983 0.6283504,6.0253 z"
         style="opacity:1;fill:#e287cd;fill-opacity:1;fill-rule:nonzero;stroke:none;stroke-width:3.5;stroke-linecap:butt;stroke-linejoin:round;stroke-miterlimit:4;stroke-dasharray:42, 42;stroke-dashoffset:0;stroke-opacity:1" />
      <path
         inkscape:connector-curvature="0"
         id="rect5531-5"
         d="m 21.657348,1044.6221 c 0,0 -0.626448,-0.6828 -1.200571,-0.099 l -1.26127,1.2819 -3.466271,-3.523 c -0.255209,-0.2594 -0.651254,-0.2754 -0.886897,-0.036 l -0.961169,0.977 c -0.235655,0.2395 -0.219852,0.6419 0.03546,0.9015 l 3.466201,3.5229 -1.247977,1.2685 c -0.539962,0.5888 0.08448,1.2337 0.08448,1.2337 l 6.066381,0.4983 -0.62835,-6.0253 z"
         style="opacity:1;fill:#e287cd;fill-opacity:1;fill-rule:nonzero;stroke:none;stroke-width:3.5;stroke-linecap:butt;stroke-linejoin:round;stroke-miterlimit:4;stroke-dasharray:42, 42;stroke-dashoffset:0;stroke-opacity:1" />
      <path
         inkscape:connector-curvature="0"
         id="rect5531-8"
         d="m 2.3426527,1044.6221 c 0,0 0.626448,-0.6828 1.2005717,-0.099 l 1.2612696,1.2819 3.4662715,-3.523 c 0.255209,-0.2594 0.651254,-0.2754 0.886897,-0.036 l 0.9611685,0.977 c 0.235655,0.2395 0.219852,0.6419 -0.03546,0.9015 l -3.4662005,3.5229 1.247977,1.2685 c 0.539962,0.5888 -0.08448,1.2337 -0.08448,1.2337 l -6.0663818,0.4983 0.6283504,-6.0253 z"
         style="opacity:1;fill:#e287cd;fill-opacity:1;fill-rule:nonzero;stroke:none;stroke-width:3.5;stroke-linecap:butt;stroke-linejoin:round;stroke-miterlimit:4;stroke-dasharray:42, 42;stroke-dashoffset:0;stroke-opacity:1" />
      <path
         inkscape:connector-curvature="0"
         id="rect5531-9"
         d="m 21.657348,1036.1023 c 0,0 -0.626448,0.6828 -1.200571,0.099 l -1.26127,-1.2819 -3.466271,3.523 c -0.255209,0.2594 -0.651254,0.2754 -0.886897,0.036 l -0.961169,-0.977 c -0.235655,-0.2395 -0.219852,-0.6419 0.03546,-0.9015 l 3.466201,-3.5229 -1.247977,-1.2685 c -0.539962,-0.5888 0.08448,-1.2337 0.08448,-1.2337 l 6.066381,-0.4983 -0.62835,6.0253 z"
         style="opacity:1;fill:#e287cd;fill-opacity:1;fill-rule:nonzero;stroke:none;stroke-width:3.5;stroke-linecap:butt;stroke-linejoin:round;stroke-miterlimit:4;stroke-dasharray:42, 42;stroke-dashoffset:0;stroke-opacity:1" />
    </g>
  </g>
</svg>
