<?xml version="1.0" encoding="UTF-8" standalone="no"?>
<!-- Created with Inkscape (http://www.inkscape.org/) -->

<svg
   xmlns:dc="http://purl.org/dc/elements/1.1/"
   xmlns:cc="http://creativecommons.org/ns#"
   xmlns:rdf="http://www.w3.org/1999/02/22-rdf-syntax-ns#"
   xmlns:svg="http://www.w3.org/2000/svg"
   xmlns="http://www.w3.org/2000/svg"
   xmlns:sodipodi="http://sodipodi.sourceforge.net/DTD/sodipodi-0.dtd"
   xmlns:inkscape="http://www.inkscape.org/namespaces/inkscape"
   width="32"
   height="32"
   viewBox="0 0 32 32.000001"
   id="svg4136"
   version="1.1"
   inkscape:version="0.91 r13725"
   sodipodi:docname="search_conf.svg"
   inkscape:export-filename="T:\InkscapeFiles\add_new_conf.png"
   inkscape:export-xdpi="90"
   inkscape:export-ydpi="90">
  <defs
     id="defs4138" />
  <sodipodi:namedview
     id="base"
     pagecolor="#ffffff"
     bordercolor="#666666"
     borderopacity="1.0"
     inkscape:pageopacity="0.0"
     inkscape:pageshadow="2"
     inkscape:zoom="11.313709"
     inkscape:cx="5.8787717"
     inkscape:cy="18.525264"
     inkscape:document-units="px"
     inkscape:current-layer="layer1"
     showgrid="false"
     units="px"
     inkscape:window-width="1366"
     inkscape:window-height="746"
     inkscape:window-x="-8"
     inkscape:window-y="-8"
     inkscape:window-maximized="1" />
  <metadata
     id="metadata4141">
    <rdf:RDF>
      <cc:Work
         rdf:about="">
        <dc:format>image/svg+xml</dc:format>
        <dc:type
           rdf:resource="http://purl.org/dc/dcmitype/StillImage" />
        <dc:title></dc:title>
      </cc:Work>
    </rdf:RDF>
  </metadata>
  <g
     inkscape:label="Layer 1"
     inkscape:groupmode="layer"
     id="layer1"
     transform="translate(0,-1020.3622)">
    <path
       style="opacity:1;fill:#607d8b;fill-opacity:1;fill-rule:nonzero;stroke:none;stroke-opacity:1"
       d="m 0,1036.3622 0,-16 16,0 16,0 0,16 0,16 -16,0 -16,0 0,-16 z"
       id="path4686"
       inkscape:connector-curvature="0" />
    <path
       transform="matrix(0.72277481,-0.69108362,0.71944476,0.69454967,0,0)"
       style="opacity:1;fill:#ffffff;fill-opacity:1;fill-rule:nonzero;stroke:none;stroke-opacity:1"
       d="m -747.9054,760.326 16.70397,0 0,2.26196 -16.74877,0 c 0,0 -0.16644,-0.005 -0.17454,-0.16315 -0.0346,-0.67461 0.0367,-1.96821 0.0367,-1.96821 0.0438,-0.15549 0.18265,-0.13063 0.18265,-0.13063 z"
       id="rect4707"
       inkscape:connector-curvature="0"
       sodipodi:nodetypes="ccccsccc" />
    <path
       style="opacity:1;fill:#ffffff;fill-opacity:1;fill-rule:nonzero;stroke:none;stroke-opacity:1"
       d="M 21.785156 5.3027344 A 5.625 5.5357141 0 0 0 16.160156 10.839844 A 5.625 5.5357141 0 0 0 21.785156 16.375 A 5.625 5.5357141 0 0 0 27.410156 10.839844 A 5.625 5.5357141 0 0 0 21.785156 5.3027344 z M 21.785156 7.1777344 A 3.6607144 3.5267856 0 0 1 25.447266 10.705078 A 3.6607144 3.5267856 0 0 1 21.785156 14.232422 A 3.6607144 3.5267856 0 0 1 18.125 10.705078 A 3.6607144 3.5267856 0 0 1 21.785156 7.1777344 z "
       transform="translate(0,1020.3622)"
       id="path4709" />
  </g>
</svg>
