<?xml version="1.0" encoding="UTF-8" standalone="no"?>
<!-- Created with Inkscape (http://www.inkscape.org/) -->

<svg
   xmlns:dc="http://purl.org/dc/elements/1.1/"
   xmlns:cc="http://creativecommons.org/ns#"
   xmlns:rdf="http://www.w3.org/1999/02/22-rdf-syntax-ns#"
   xmlns:svg="http://www.w3.org/2000/svg"
   xmlns="http://www.w3.org/2000/svg"
   xmlns:sodipodi="http://sodipodi.sourceforge.net/DTD/sodipodi-0.dtd"
   xmlns:inkscape="http://www.inkscape.org/namespaces/inkscape"
   width="32"
   height="32"
   viewBox="0 0 32 32.000001"
   id="svg4136"
   version="1.1"
   inkscape:version="0.91 r13725"
   sodipodi:docname="download_file.svg"
   inkscape:export-filename="T:\InkscapeFiles\uplaod_file.png"
   inkscape:export-xdpi="90"
   inkscape:export-ydpi="90">
  <defs
     id="defs4138" />
  <sodipodi:namedview
     id="base"
     pagecolor="#ffffff"
     bordercolor="#666666"
     borderopacity="1.0"
     inkscape:pageopacity="0.0"
     inkscape:pageshadow="2"
     inkscape:zoom="8"
     inkscape:cx="15.415275"
     inkscape:cy="18.645259"
     inkscape:document-units="px"
     inkscape:current-layer="layer1"
     showgrid="false"
     units="px"
     inkscape:window-width="1366"
     inkscape:window-height="746"
     inkscape:window-x="-8"
     inkscape:window-y="-8"
     inkscape:window-maximized="1" />
  <metadata
     id="metadata4141">
    <rdf:RDF>
      <cc:Work
         rdf:about="">
        <dc:format>image/svg+xml</dc:format>
        <dc:type
           rdf:resource="http://purl.org/dc/dcmitype/StillImage" />
        <dc:title></dc:title>
      </cc:Work>
    </rdf:RDF>
  </metadata>
  <g
     inkscape:label="Layer 1"
     inkscape:groupmode="layer"
     id="layer1"
     transform="translate(0,-1020.3622)">
    <path
       style="opacity:1;fill:#607d8b;fill-opacity:1;fill-rule:nonzero;stroke:none;stroke-opacity:1"
       d="m 0,1036.3622 0,-16 16,0 16,0 0,16 0,16 -16,0 -16,0 0,-16 z"
       id="path4686"
       inkscape:connector-curvature="0" />
    <g
       id="g4777"
       transform="translate(0.125,-7)">
      <path
         id="rect4718"
         transform="translate(0,1020.3622)"
         d="m 7.0703125,10.255859 0,18.916016 17.8554685,0 0,-18.916016 -17.8554685,0 z m 1.3261719,1.060547 15.1152346,0 0,16.617188 -15.1152346,0 0,-16.617188 z"
         style="opacity:1;fill:#ffffff;fill-opacity:1;fill-rule:nonzero;stroke:none;stroke-opacity:1"
         inkscape:connector-curvature="0" />
      <rect
         y="1033.0935"
         x="10"
         height="1.0606601"
         width="11.844039"
         id="rect4723"
         style="opacity:1;fill:#ffffff;fill-opacity:1;fill-rule:nonzero;stroke:none;stroke-opacity:1" />
      <rect
         y="1035.5684"
         x="10"
         height="1.0606601"
         width="11.844039"
         id="rect4723-7"
         style="opacity:1;fill:#ffffff;fill-opacity:1;fill-rule:nonzero;stroke:none;stroke-opacity:1" />
      <rect
         y="1037.9548"
         x="10"
         height="1.0606601"
         width="11.844039"
         id="rect4723-79"
         style="opacity:1;fill:#ffffff;fill-opacity:1;fill-rule:nonzero;stroke:none;stroke-opacity:1" />
      <rect
         y="1040.2531"
         x="10"
         height="1.0606601"
         width="11.844039"
         id="rect4723-3"
         style="opacity:1;fill:#ffffff;fill-opacity:1;fill-rule:nonzero;stroke:none;stroke-opacity:1" />
      <rect
         y="1042.75"
         x="10"
         height="1.0606601"
         width="11.844039"
         id="rect4723-5"
         style="opacity:1;fill:#ffffff;fill-opacity:1;fill-rule:nonzero;stroke:none;stroke-opacity:1" />
      <rect
         y="1045.2028"
         x="10"
         height="1.0606601"
         width="11.844039"
         id="rect4723-1"
         style="opacity:1;fill:#ffffff;fill-opacity:1;fill-rule:nonzero;stroke:none;stroke-opacity:1" />
    </g>
    <path
       style="fill:#ffffff;fill-opacity:1;fill-rule:evenodd;stroke:none;stroke-width:1px;stroke-linecap:butt;stroke-linejoin:miter;stroke-opacity:1"
       d="m 10.767414,1044.8451 c 0,0 -1.4265,0 -1.529,-1.3991 0,0 -1.5828,4.312 -4.019,3.6561 -0.4246,-0.114 -1.3456,-1.3012 -1.3456,-1.3012 0,0 0.2887,0.676 0.3822,1.0312 0.1173,0.4455 0.4191,0.88 0.4205,1.358 0,0.9637 -0.8321,2.8069 -0.8321,2.8069 0,0 1.051,-1.2044 2.9,-1.2797 1.8491,-0.075 2.5957,0.1241 2.5957,0.1241 0,0 -1.6959,-0.3261 -1.8154,-1.0027 -0.2893,-1.6305 3.2425,-3.9937 3.2425,-3.9937 z"
       id="path4775"
       inkscape:connector-curvature="0"
       sodipodi:nodetypes="ccscsacccacc" />
  </g>
</svg>
