<?xml version="1.0" encoding="UTF-8" standalone="no"?>
<!-- Created with Inkscape (http://www.inkscape.org/) -->

<svg
   xmlns:dc="http://purl.org/dc/elements/1.1/"
   xmlns:cc="http://creativecommons.org/ns#"
   xmlns:rdf="http://www.w3.org/1999/02/22-rdf-syntax-ns#"
   xmlns:svg="http://www.w3.org/2000/svg"
   xmlns="http://www.w3.org/2000/svg"
   xmlns:sodipodi="http://sodipodi.sourceforge.net/DTD/sodipodi-0.dtd"
   xmlns:inkscape="http://www.inkscape.org/namespaces/inkscape"
   width="32"
   height="32"
   viewBox="0 0 32 32.000001"
   id="svg4136"
   version="1.1"
   inkscape:version="0.91 r13725"
   sodipodi:docname="logout_icon.svg"
   inkscape:export-filename="T:\InkscapeFiles\help_icon.png"
   inkscape:export-xdpi="90"
   inkscape:export-ydpi="90">
  <defs
     id="defs4138" />
  <sodipodi:namedview
     id="base"
     pagecolor="#ffffff"
     bordercolor="#666666"
     borderopacity="1.0"
     inkscape:pageopacity="0.0"
     inkscape:pageshadow="2"
     inkscape:zoom="5.6568543"
     inkscape:cx="5.0543192"
     inkscape:cy="13.343588"
     inkscape:document-units="px"
     inkscape:current-layer="layer1"
     showgrid="false"
     units="px"
     inkscape:window-width="1366"
     inkscape:window-height="746"
     inkscape:window-x="-8"
     inkscape:window-y="-8"
     inkscape:window-maximized="1" />
  <metadata
     id="metadata4141">
    <rdf:RDF>
      <cc:Work
         rdf:about="">
        <dc:format>image/svg+xml</dc:format>
        <dc:type
           rdf:resource="http://purl.org/dc/dcmitype/StillImage" />
        <dc:title></dc:title>
      </cc:Work>
    </rdf:RDF>
  </metadata>
  <g
     inkscape:label="Layer 1"
     inkscape:groupmode="layer"
     id="layer1"
     transform="translate(0,-1020.3622)">
    <path
       style="opacity:1;fill:#607d8b;fill-opacity:1;fill-rule:nonzero;stroke:none;stroke-opacity:1"
       d="m 0,1036.3622 0,-16 16,0 16,0 0,16 0,16 -16,0 -16,0 0,-16 z"
       id="path4686"
       inkscape:connector-curvature="0" />
    <path
       style="opacity:1;fill:#ffffff;fill-opacity:1;fill-rule:nonzero;stroke:none;stroke-opacity:1"
       d="m 5.1511218,1025.0653 0,22.4512 13.8769532,0 0,-22.4512 -13.8769532,0 z m 12.3242192,10.2559 a 0.8175922,0.75130093 0 0 1 0.05859,0 0.8175922,0.75130093 0 0 1 0.816407,0.75 0.8175922,0.75130093 0 0 1 -0.816407,0.7519 0.8175922,0.75130093 0 0 1 -0.783203,-0.5332 l -2.804687,0 0,-0.3964 2.792968,0 a 0.8175922,0.75130093 0 0 1 0.736329,-0.5723 z"
       id="rect4187"
       inkscape:connector-curvature="0" />
    <path
       style="opacity:1;fill:#ffffff;fill-opacity:1;fill-rule:nonzero;stroke:none;stroke-opacity:1"
       d="m 27.025391,1033.411 0,1.9434 -5.921875,0 0,1.5918 5.921875,0 0,1.8555 1.414062,0 1.8125,-2.7207 -1.8125,-2.67 z"
       id="rect4197"
       inkscape:connector-curvature="0"
       sodipodi:nodetypes="cccccccccc" />
  </g>
</svg>
