<?xml version="1.0" encoding="UTF-8" standalone="no"?>
<!-- Created with Inkscape (http://www.inkscape.org/) -->

<svg
   xmlns:dc="http://purl.org/dc/elements/1.1/"
   xmlns:cc="http://creativecommons.org/ns#"
   xmlns:rdf="http://www.w3.org/1999/02/22-rdf-syntax-ns#"
   xmlns:svg="http://www.w3.org/2000/svg"
   xmlns="http://www.w3.org/2000/svg"
   xmlns:sodipodi="http://sodipodi.sourceforge.net/DTD/sodipodi-0.dtd"
   xmlns:inkscape="http://www.inkscape.org/namespaces/inkscape"
   width="32"
   height="32"
   viewBox="0 0 32 32"
   id="svg5762"
   version="1.1"
   inkscape:version="0.91 r13725"
   sodipodi:docname="pass_icon.svg"
   inkscape:export-filename="T:\InkscapeFiles\pass_icon.png"
   inkscape:export-xdpi="90"
   inkscape:export-ydpi="90"
   enable-background="new">
  <defs
     id="defs5764" />
  <sodipodi:namedview
     id="base"
     pagecolor="#ffffff"
     bordercolor="#666666"
     borderopacity="1.0"
     inkscape:pageopacity="0.0"
     inkscape:pageshadow="2"
     inkscape:zoom="22.627417"
     inkscape:cx="6.3984401"
     inkscape:cy="14.955883"
     inkscape:document-units="px"
     inkscape:current-layer="g6321"
     showgrid="false"
     units="px"
     inkscape:window-width="1366"
     inkscape:window-height="746"
     inkscape:window-x="-8"
     inkscape:window-y="-8"
     inkscape:window-maximized="1" />
  <metadata
     id="metadata5767">
    <rdf:RDF>
      <cc:Work
         rdf:about="">
        <dc:format>image/svg+xml</dc:format>
        <dc:type
           rdf:resource="http://purl.org/dc/dcmitype/StillImage" />
        <dc:title></dc:title>
      </cc:Work>
    </rdf:RDF>
  </metadata>
  <g
     inkscape:label="Layer 1"
     inkscape:groupmode="layer"
     id="layer1"
     transform="translate(0,-1020.3622)"
     style="display:inline">
    <g
       id="g6321"
       style="fill:#ff0000">
      <path
         style="opacity:1;fill:#ffffff;fill-opacity:0.78823531;fill-rule:nonzero;stroke:none;stroke-opacity:1"
         d="M 15.908203 4.6835938 C 6.6258661 4.7045937 6.5019531 11.203125 6.5019531 11.203125 C 6.5019531 11.203125 6.5 11.306953 6.5 11.376953 L 6.5 15.669922 C 6.5 15.716282 6.529198 15.74931 6.5664062 15.771484 L 6.5664062 29.222656 L 25.126953 29.222656 L 25.126953 15.769531 C 25.162091 15.746913 25.189453 15.714714 25.189453 15.669922 L 25.189453 11.376953 L 25.1875 11.21875 C 25.1875 11.21875 25.1561 4.6625938 15.908203 4.6835938 z M 15.896484 6.5742188 L 15.896484 6.578125 C 23.457268 6.563125 23.486328 11.289062 23.486328 11.289062 L 23.484375 11.408203 L 23.462891 14.306641 L 23.431641 14.373047 L 8.3164062 14.373047 L 8.2050781 14.189453 L 8.2050781 11.404297 C 8.2050781 11.354297 8.2148438 11.085938 8.2148438 11.085938 C 8.2148438 11.085938 8.3075444 6.5892188 15.896484 6.5742188 z "
         transform="translate(0,1020.3622)"
         id="rect6486" />
      <path
         style="opacity:1;fill:#607d8b;fill-opacity:1;fill-rule:nonzero;stroke:none;stroke-opacity:1"
         d="m 14.10117,1041.3978 c 0,0 -0.09981,-1.3984 1.812663,-1.4062 2.084247,-0.01 1.946816,1.25 1.946816,1.25 0,0 0.103387,1.2523 -0.134316,1.8751 0,0 -0.30301,0.6879 -0.672972,1.2321 0,0 -0.560551,1.6799 -1.086141,1.6742 -0.516243,-0.01 -0.709419,-1.2487 -1.002363,-1.7239 -0.23006,-0.3731 -0.468512,-0.6946 -0.613524,-1.2137 -0.329661,-1.1803 -0.250163,-1.6876 -0.250163,-1.6876 z"
         id="rect6508"
         inkscape:connector-curvature="0"
         sodipodi:nodetypes="cscccsssc" />
    </g>
  </g>
</svg>
